<svg xmlns="http://www.w3.org/2000/svg" viewBox="0 0 42.42 42.43"><defs><linearGradient id="a7d714df7-260a-40a4-8003-486111e34cf1" y1="21.21" x2="42.42" y2="21.21" gradientUnits="userSpaceOnUse"><stop offset="0" stop-color="#fdaf42"/><stop offset=".47" stop-color="#fc51fa"/><stop offset=".99" stop-color="#2cd4ff"/></linearGradient></defs><path d="M16.1.61a22.68 22.68 0 0 1 13.78 1.13 7.9 7.9 0 0 1 7.89-.95A7.66 7.66 0 0 1 42.1 9.5c-.17 1.22-1.12 2.15-1.35 3.32a21.8 21.8 0 0 1 .25 16.1 21.12 21.12 0 0 1-11.31 11.74A21.22 21.22 0 0 1 1.76 29.73a21.48 21.48 0 0 1 .66-18.41A21.2 21.2 0 0 1 16.1.61zm1.28 4.24A16.49 16.49 0 0 0 6.06 14a15.77 15.77 0 0 1 27.07 11c.17 4.08-1.71 7.89-4.13 11 7.55-3.49 11.05-13.28 8-20.91a7.87 7.87 0 0 1-8.81-3.44 8.79 8.79 0 0 1-.84-6.21 17 17 0 0 0-9.97-.59zm16.43-.21a3.22 3.22 0 1 0 3.95 4 3.26 3.26 0 0 0-3.95-4zm-20.36 9.72a11.38 11.38 0 0 0-6.64 6.47A11.11 11.11 0 0 1 16.56 19a10.29 10.29 0 0 1 7.29 9.35 11.19 11.19 0 0 1-2.24 7.17 11.18 11.18 0 0 0 7.06-11.77 11.39 11.39 0 0 0-15.22-9.4zm-1.34 8.75a6 6 0 0 0 1.07 11.74 6 6 0 1 0-1.07-11.74z" fill="url(#a7d714df7-260a-40a4-8003-486111e34cf1)"/></svg>